<svg xmlns="http://www.w3.org/2000/svg" viewBox="0 0 512 512" role="img" aria-label="Comet list note icon">
  <rect width="512" height="512" rx="96" fill="#1B0F3A"/>
  <rect x="20" y="20" width="472" height="472" rx="84" fill="none" stroke="#39FF14" stroke-width="10" opacity="0.5"/>
  <rect x="80" y="80" width="352" height="352" rx="44" fill="#12082A"/>
  <path d="M120 340 C180 320 240 280 300 220 C340 180 372 140 392 108" fill="none" stroke="#0033FF" stroke-width="10" stroke-linecap="round" opacity="0.35"/>
  <rect x="128" y="288" width="200" height="24" rx="6" fill="#FF6EC7" transform="rotate(-8 228 300)"/>
  <rect x="148" y="244" width="180" height="24" rx="6" fill="#A8FF60" transform="rotate(-8 238 256)"/>
  <rect x="168" y="200" width="160" height="24" rx="6" fill="#0033FF" transform="rotate(-8 248 212)"/>
  <polygon points="392,108 360,132 372,168 408,156 432,188 416,132" fill="#F0EAE0"/>
  <circle cx="392" cy="108" r="28" fill="#0033FF"/>
  <circle cx="392" cy="108" r="14" fill="#FF6EC7"/>
</svg>
