<svg xmlns="http://www.w3.org/2000/svg" viewBox="0 0 512 512" role="img" aria-label="Neon palm note icon">
  <defs>
    <linearGradient id="palm-sky" x1="0" y1="0" x2="0" y2="1">
      <stop offset="0%" stop-color="#12082A"/>
      <stop offset="45%" stop-color="#FF6EC7"/>
      <stop offset="100%" stop-color="#00F5FF"/>
    </linearGradient>
  </defs>
  <rect width="512" height="512" rx="96" fill="#1B0F3A"/>
  <rect x="20" y="20" width="472" height="472" rx="84" fill="none" stroke="#00F5FF" stroke-width="10" opacity="0.55"/>
  <rect x="72" y="72" width="368" height="368" rx="40" fill="url(#palm-sky)"/>
  <circle cx="360" cy="148" r="52" fill="#FFB347" opacity="0.95"/>
  <rect x="112" y="300" width="288" height="28" rx="8" fill="#FF6EC7"/>
  <rect x="112" y="340" width="288" height="28" rx="8" fill="#00F5FF"/>
  <rect x="112" y="380" width="288" height="28" rx="8" fill="#B8FF3C"/>
  <path d="M256 392 V176" stroke="#39FF14" stroke-width="18" stroke-linecap="round"/>
  <path d="M256 220 C196 180 148 196 132 248" fill="none" stroke="#39FF14" stroke-width="16" stroke-linecap="round"/>
  <path d="M256 248 C316 208 364 224 380 276" fill="none" stroke="#39FF14" stroke-width="16" stroke-linecap="round"/>
  <path d="M256 276 C206 252 176 268 168 312" fill="none" stroke="#B8FF3C" stroke-width="14" stroke-linecap="round"/>
  <path d="M256 276 C306 252 336 268 344 312" fill="none" stroke="#B8FF3C" stroke-width="14" stroke-linecap="round"/>
</svg>
