<svg xmlns="http://www.w3.org/2000/svg" viewBox="0 0 512 512" role="img" aria-label="Prism note icon">
  <rect width="512" height="512" rx="96" fill="#1B0F3A"/>
  <rect x="20" y="20" width="472" height="472" rx="84" fill="none" stroke="#B8FF3C" stroke-width="10" opacity="0.5"/>
  <rect x="96" y="96" width="320" height="320" rx="36" fill="#12082A"/>
  <polygon points="256,120 360,360 152,360" fill="#F0EAE0" opacity="0.92"/>
  <polygon points="256,120 360,360 256,360" fill="#E0D8CC" opacity="0.55"/>
  <line x1="88" y1="256" x2="152" y2="256" stroke="#FFFFFF" stroke-width="14" stroke-linecap="round" opacity="0.9"/>
  <rect x="372" y="176" width="56" height="20" rx="6" fill="#FF6EC7"/>
  <rect x="372" y="212" width="56" height="20" rx="6" fill="#00F5FF"/>
  <rect x="372" y="248" width="56" height="20" rx="6" fill="#B8FF3C"/>
  <rect x="372" y="284" width="56" height="20" rx="6" fill="#39FF14"/>
  <line x1="360" y1="186" x2="372" y2="186" stroke="#FF6EC7" stroke-width="8" stroke-linecap="round"/>
  <line x1="360" y1="222" x2="372" y2="222" stroke="#00F5FF" stroke-width="8" stroke-linecap="round"/>
  <line x1="360" y1="258" x2="372" y2="258" stroke="#B8FF3C" stroke-width="8" stroke-linecap="round"/>
  <line x1="360" y1="294" x2="372" y2="294" stroke="#39FF14" stroke-width="8" stroke-linecap="round"/>
  <circle cx="256" cy="120" r="16" fill="#FFFFFF" opacity="0.95"/>
</svg>
