<svg xmlns="http://www.w3.org/2000/svg" viewBox="0 0 512 512" role="img" aria-label="Easel note icon">
  <rect width="512" height="512" rx="96" fill="#1B0F3A"/>
  <rect x="20" y="20" width="472" height="472" rx="84" fill="none" stroke="#FF6EC7" stroke-width="10" opacity="0.5"/>
  <polygon points="160,420 200,180 240,420" fill="#261810"/>
  <polygon points="352,420 312,180 272,420" fill="#261810"/>
  <rect x="168" y="168" width="176" height="16" rx="4" fill="#4A3018" transform="rotate(-8 256 176)"/>
  <g transform="rotate(-10 256 260)">
    <rect x="144" y="148" width="224" height="280" rx="10" fill="#F0EAE0"/>
    <rect x="168" y="184" width="176" height="26" rx="5" fill="#FF6EC7"/>
    <rect x="168" y="224" width="176" height="26" rx="5" fill="#00F5FF"/>
    <rect x="168" y="264" width="176" height="26" rx="5" fill="#B8FF3C"/>
    <rect x="168" y="304" width="176" height="26" rx="5" fill="#39FF14"/>
  </g>
  <polygon points="176,420 196,220 212,420" fill="#6E4E30" opacity="0.45"/>
  <polygon points="336,420 316,220 300,420" fill="#6E4E30" opacity="0.45"/>
</svg>
